# xmcd
#
# Track frame offsets: 
#        150
#        19800
#        43350
#        64550
#        87125
#        100100
#        120950
#        138775
#        159325
#        176950
#
# Disc length: 2650 seconds
#
# Revision: 0
# Processed by: cddbd v1.5.2PL0 Copyright (c) Steve Scherf et al.
# Submitted via: ExactAudioCopyFreeDBPlugin 1.0
#
DISCID=780a580a
DTITLE=于台煙 - 一切都還好
DYEAR=1992
DGENRE=Blues
TTITLE0=淚滴
TTITLE1=一切都還好
TTITLE2=雖然這樣愛妳
TTITLE3=被愛的女人
TTITLE4=簡單的歌
TTITLE5=牽阮的手
TTITLE6=輕輕說
TTITLE7=還有一個我
TTITLE8=全心全意愛一個人
TTITLE9=Everything is all right
EXTD=
EXTT0=
EXTT1=
EXTT2=
EXTT3=
EXTT4=
EXTT5=
EXTT6=
EXTT7=
EXTT8=
EXTT9=
PLAYORDER=
